# 3ds Max Wavefront OBJ Exporter v0.97b - (c)2007 guruware
# 创建的文件:18.07.2017 20:04:44

#
# object ChamferBox001
#

v  -8.16 10.31 -8.16
v  -8.16 10.31 8.16
v  8.16 10.31 8.16
v  8.16 10.31 -8.16
v  -8.16 8.16 -10.32
v  -10.32 8.16 -8.16
v  -10.32 8.16 8.16
v  -8.16 8.16 10.32
v  8.16 8.16 10.32
v  10.32 8.16 8.16
v  10.32 8.16 -8.16
v  8.16 8.16 -10.32
v  -8.16 -8.16 -10.32
v  -10.32 -8.16 -8.16
v  -10.32 -8.16 8.16
v  -8.16 -8.16 10.32
v  8.16 -8.16 10.32
v  10.32 -8.16 8.16
v  10.32 -8.16 -8.16
v  8.16 -8.16 -10.32
v  -8.16 -10.31 -8.16
v  -8.16 -10.31 8.16
v  8.16 -10.31 8.16
v  8.16 -10.31 -8.16
# 24 vertices

vn -0.34 0.88 -0.34
vn -0.34 0.88 0.34
vn 0.34 0.88 0.34
vn 0.34 0.88 -0.34
vn -0.34 0.34 -0.88
vn -0.88 0.34 -0.34
vn -0.88 0.34 0.34
vn -0.34 0.34 0.88
vn 0.34 0.34 0.88
vn 0.88 0.34 0.34
vn 0.88 0.34 -0.34
vn 0.34 0.34 -0.88
vn -0.34 -0.34 -0.88
vn -0.88 -0.34 -0.34
vn -0.88 -0.34 0.34
vn -0.34 -0.34 0.88
vn 0.34 -0.34 0.88
vn 0.88 -0.34 0.34
vn 0.88 -0.34 -0.34
vn 0.34 -0.34 -0.88
vn -0.34 -0.88 -0.34
vn -0.34 -0.88 0.34
vn 0.34 -0.88 0.34
vn 0.34 -0.88 -0.34
# 24 vertex normals

vt 0.96 0.19 0.00
vt 0.81 0.29 0.00
vt 0.71 0.13 0.00
vt 0.86 0.04 0.00
vt 1.00 0.18 0.00
vt 0.98 0.22 0.00
vt 0.82 0.33 0.00
vt 0.78 0.31 0.00
vt 0.67 0.15 0.00
vt 0.69 0.11 0.00
vt 0.85 0.00 0.00
vt 0.89 0.02 0.00
vt 0.66 0.72 0.00
vt 0.51 0.83 0.00
vt 0.49 0.80 0.00
vt 0.64 0.70 0.00
vt 0.38 0.65 0.00
vt 0.54 0.54 0.00
vt 0.36 0.62 0.00
vt 0.52 0.51 0.00
vt 0.26 0.47 0.00
vt 0.41 0.36 0.00
vt 0.24 0.44 0.00
vt 0.39 0.33 0.00
vt 0.13 0.29 0.00
vt 0.28 0.18 0.00
vt 0.11 0.26 0.00
vt 0.26 0.15 0.00
vt 0.00 0.11 0.00
vt 0.15 0.00 0.00
vt 0.86 0.34 0.00
vt 0.84 0.37 0.00
vt 0.70 0.49 0.00
vt 0.68 0.47 0.00
vt 0.67 0.51 0.00
vt 0.83 0.63 0.00
vt 0.81 0.65 0.00
vt 0.85 0.66 0.00
vt 0.97 0.50 0.00
vt 0.99 0.52 0.00
vt 1.00 0.48 0.00
# 41 texture coords

g ChamferBox001
f 1/1/1 2/2/2 3/3/3 
f 1/1/1 3/3/3 4/4/4 
f 1/1/1 5/5/5 6/6/6 
f 1/1/1 6/6/6 7/7/7 
f 1/1/1 7/7/7 2/2/2 
f 2/2/2 7/7/7 8/8/8 
f 2/2/2 8/8/8 9/9/9 
f 2/2/2 9/9/9 3/3/3 
f 3/3/3 9/9/9 10/10/10 
f 3/3/3 10/10/10 11/11/11 
f 3/3/3 11/11/11 4/4/4 
f 4/4/4 11/11/11 12/12/12 
f 4/4/4 12/12/12 5/5/5 
f 4/4/4 5/5/5 1/1/1 
f 5/13/5 13/14/13 14/15/14 
f 5/13/5 14/15/14 6/16/6 
f 6/16/6 14/15/14 15/17/15 
f 6/16/6 15/17/15 7/18/7 
f 7/18/7 15/17/15 16/19/16 
f 7/18/7 16/19/16 8/20/8 
f 8/20/8 16/19/16 17/21/17 
f 8/20/8 17/21/17 9/22/9 
f 9/22/9 17/21/17 18/23/18 
f 9/22/9 18/23/18 10/24/10 
f 10/24/10 18/23/18 19/25/19 
f 10/24/10 19/25/19 11/26/11 
f 11/26/11 19/25/19 20/27/20 
f 11/26/11 20/27/20 12/28/12 
f 12/28/12 20/27/20 13/29/13 
f 12/28/12 13/29/13 5/30/5 
f 13/31/13 21/32/21 14/7/14 
f 14/7/14 21/32/21 22/33/22 
f 14/7/14 22/33/22 15/34/15 
f 15/34/15 22/33/22 16/35/16 
f 16/35/16 22/33/22 23/36/23 
f 16/35/16 23/36/23 17/37/17 
f 17/37/17 23/36/23 18/38/18 
f 18/38/18 23/36/23 24/39/24 
f 18/38/18 24/39/24 19/40/19 
f 19/40/19 24/39/24 20/41/20 
f 20/41/20 24/39/24 21/32/21 
f 20/41/20 21/32/21 13/31/13 
f 24/39/24 23/36/23 22/33/22 
f 24/39/24 22/33/22 21/32/21 
# 44 faces

